<?xml version="1.0" standalone="no"?>
<!DOCTYPE svg PUBLIC "-//W3C//DTD SVG 20010904//EN"
 "http://www.w3.org/TR/2001/REC-SVG-20010904/DTD/svg10.dtd">
<svg version="1.0" xmlns="http://www.w3.org/2000/svg"
 width="800.000000pt" height="800.000000pt" viewBox="0 0 800.000000 800.000000"
 preserveAspectRatio="xMidYMid meet">
<metadata>
Created by potrace 1.11, written by Peter Selinger 2001-2013
</metadata>
<g transform="translate(0.000000,800.000000) scale(0.100000,-0.100000)"
fill="#000000" stroke="none">
<path d="M2689 7068 c-1 -7 -2 -555 -3 -1218 -2 -663 -6 -1216 -9 -1230 -3
-14 -8 -56 -12 -94 -3 -38 -8 -72 -10 -75 -1 -3 -6 -28 -9 -56 -7 -65 -49
-234 -88 -355 -85 -265 -223 -520 -392 -727 -36 -46 -62 -83 -55 -83 26 0 160
79 234 139 73 58 274 255 370 362 22 24 92 107 156 184 309 375 475 599 645
875 95 152 125 211 155 298 17 50 18 108 19 1023 l0 969 -80 0 -80 0 -1 -42
c0 -24 -1 -82 0 -130 0 -90 -6 -104 -44 -107 -58 -3 -162 -1 -187 4 l-28 7 0
134 0 134 -80 0 -80 0 -1 -32 c0 -18 0 -79 1 -135 0 -57 -3 -103 -7 -104 -4 0
-17 -3 -28 -5 -23 -5 -169 -6 -200 -1 -19 4 -20 13 -23 140 l-3 137 -79 0
c-57 0 -80 -4 -81 -12z"/>
<path d="M4340 5056 c-207 -45 -342 -115 -464 -240 -73 -74 -122 -149 -185
-282 -27 -55 -67 -131 -90 -168 -22 -38 -41 -70 -41 -73 0 -8 -82 -146 -168
-283 -192 -302 -378 -516 -647 -740 -224 -187 -373 -278 -516 -315 -121 -31
-304 -29 -414 4 -252 75 -460 267 -554 510 -40 103 -53 185 -53 317 0 143 27
256 92 389 96 195 253 331 460 398 108 35 166 42 430 52 96 3 186 12 216 20
138 39 190 206 95 308 -28 30 -109 73 -156 82 -148 28 -202 33 -325 30 -74 -2
-145 -5 -156 -8 -12 -3 -37 -8 -55 -11 -179 -28 -442 -153 -598 -283 -212
-175 -387 -482 -437 -763 -16 -92 -21 -272 -9 -360 41 -320 215 -648 445 -841
205 -171 456 -275 739 -305 47 -4 2221 -9 2377 -5 20 1 16 12 -45 119 -96 169
-197 378 -266 552 -51 129 -142 408 -152 467 -13 71 -5 336 12 438 51 298 159
473 350 565 205 99 489 88 681 -26 138 -82 222 -192 273 -359 41 -132 43 -185
45 -930 2 -806 -3 -749 75 -797 28 -18 51 -23 106 -23 81 0 126 21 162 74 l22
32 1 667 c1 367 3 708 5 757 9 196 81 374 199 490 207 206 514 241 813 94 144
-70 237 -176 288 -327 46 -135 47 -164 49 -977 2 -679 2 -702 22 -735 11 -21
38 -44 64 -58 84 -42 222 -13 263 57 14 25 16 109 13 847 l-2 819 -23 85 c-89
329 -337 585 -677 699 -132 44 -197 55 -324 55 -320 0 -649 -152 -825 -383
l-36 -47 -94 92 c-146 144 -292 238 -453 293 -114 39 -133 42 -292 46 -113 3
-152 0 -240 -19z"/>
<path d="M1508 2377 c-19 -21 -20 -37 -20 -227 0 -113 -3 -209 -5 -213 -3 -5
-17 2 -32 16 -23 21 -53 39 -111 67 -29 14 -83 22 -145 22 -227 0 -408 -180
-407 -405 1 -126 37 -210 126 -298 98 -97 230 -133 374 -103 138 29 259 140
299 273 24 81 27 834 3 863 -23 29 -59 31 -82 5z m-226 -467 c200 -55 270
-328 121 -477 -61 -61 -124 -87 -208 -86 -298 2 -397 386 -139 539 69 41 136
48 226 24z"/>
<path d="M3370 2380 c-13 -8 -15 -82 -17 -560 -1 -534 0 -550 19 -575 14 -19
26 -24 46 -20 51 9 54 21 55 190 l1 157 59 38 59 39 184 -209 c102 -114 195
-210 206 -213 44 -12 85 33 69 75 -5 13 -22 37 -37 54 -16 17 -94 105 -173
194 -142 160 -144 163 -124 179 12 9 87 59 168 111 81 52 154 105 162 117 22
33 -1 77 -43 81 -26 3 -74 -24 -278 -157 -136 -89 -248 -161 -250 -161 -1 0
-3 144 -4 320 -1 269 -3 323 -16 335 -16 17 -63 20 -86 5z"/>
<path d="M5520 2270 c-42 -42 -20 -113 39 -125 58 -11 104 51 76 105 -23 45
-80 55 -115 20z"/>
<path d="M2028 2030 c-107 -27 -185 -85 -252 -187 -61 -95 -72 -266 -23 -375
61 -137 202 -234 352 -242 103 -5 199 25 278 86 l37 30 0 -39 c0 -22 6 -47 13
-56 19 -26 62 -28 87 -5 21 20 22 24 18 257 l-3 236 -32 68 c-87 183 -280 275
-475 227z m227 -137 c143 -71 204 -239 136 -378 -53 -110 -142 -168 -261 -168
-251 -1 -379 286 -215 481 79 94 226 122 340 65z"/>
<path d="M2991 2038 c-54 -8 -135 -44 -188 -86 l-33 -24 0 36 c0 56 -15 76
-55 76 -63 0 -63 -2 -63 -404 0 -222 4 -368 10 -382 6 -12 22 -24 37 -27 28
-6 71 16 71 36 1 6 2 109 3 227 2 193 5 220 23 260 35 76 122 149 197 166 39
9 131 6 160 -5 68 -26 107 -7 107 53 0 57 -133 93 -269 74z"/>
<path d="M4196 2029 l-26 -20 0 -373 c0 -409 0 -406 59 -408 59 -2 61 7 61
284 0 190 3 257 14 282 56 135 229 172 329 70 59 -59 60 -66 61 -346 2 -275 2
-277 52 -292 14 -4 30 0 45 13 l23 19 1 258 c1 286 3 293 67 353 99 93 261 60
318 -64 18 -40 20 -66 20 -293 0 -276 2 -285 60 -285 58 0 60 9 60 288 0 281
-7 323 -63 397 -18 24 -54 58 -81 75 -127 86 -299 70 -405 -37 -29 -30 -42
-37 -48 -27 -4 7 -28 29 -52 49 -91 77 -223 92 -335 40 -45 -21 -66 -27 -66
-18 0 15 -27 40 -52 49 -9 3 -28 -3 -42 -14z"/>
<path d="M5535 2026 l-23 -23 0 -371 c-1 -357 0 -371 19 -388 28 -26 56 -27
79 -4 19 19 20 34 20 393 0 204 -4 377 -8 384 -4 6 -20 17 -35 22 -24 9 -31 8
-52 -13z"/>
<path d="M5826 2027 l-23 -23 0 -367 c0 -325 2 -370 16 -388 22 -27 56 -31 82
-10 20 16 21 26 24 236 1 121 7 234 13 251 16 49 60 110 100 138 84 57 158 72
247 49 28 -7 60 -13 72 -13 51 0 74 76 31 104 -111 70 -344 39 -446 -61 -19
-19 -23 -16 -20 15 3 44 -11 70 -43 81 -26 9 -34 7 -53 -12z"/>
<path d="M6831 2034 c-79 -16 -146 -53 -204 -109 -61 -61 -93 -115 -110 -190
-69 -299 176 -557 477 -502 60 10 140 48 177 83 33 32 37 30 33 -11 -6 -62 53
-102 97 -66 21 17 22 25 23 212 2 287 -16 360 -115 464 -100 106 -234 148
-378 119z m154 -120 c80 -17 160 -87 197 -172 59 -132 -7 -300 -145 -370 -67
-33 -168 -36 -238 -5 -163 72 -224 274 -128 424 66 104 185 151 314 123z"/>
</g>
</svg>
